# xmcd
#
# Track frame offsets:
#	150
#	13347
#	26040
#	41363
#	56645
#	70300
#	89872
#	102065
#	116365
#	133483
#	147279
#	162716
#	178088
#
# Disc length: 2524 seconds
# Revision: 0
# Processed by: cddbd v1.5.2PL0 Copyright (c) Steve Scherf et al.
# Submitted via: dBpowerAMP V12.0
#
DISCID=c409da0d
DTITLE=Lonesome River Band - Still Learning
DYEAR=2010
DGENRE=Bluegrass
TTITLE0=Record Time Machine
TTITLE1=Goodbye Wheeling
TTITLE2=I'm Still Learning
TTITLE3=Jack Up The Jail
TTITLE4=Telling Me You Love Me Again
TTITLE5=Forty Days In The Desert
TTITLE6=Any Old Time
TTITLE7=Don't Cry Blue 
TTITLE8=As Wild As I Get
TTITLE9=High Lonesome
TTITLE10=Red Bandana
TTITLE11=I've Seen The Blues
TTITLE12=Pretty Little Girl
EXTD=
EXTT0=
EXTT1=
EXTT2=
EXTT3=
EXTT4=
EXTT5=
EXTT6=
EXTT7=
EXTT8=
EXTT9=
EXTT10=
EXTT11=
EXTT12=
PLAYORDER=
